<?xml version="1.0" standalone="no"?><!DOCTYPE svg PUBLIC "-//W3C//DTD SVG 1.1//EN" "http://www.w3.org/Graphics/SVG/1.1/DTD/svg11.dtd"><svg t="1543051119057" class="icon" style="" viewBox="0 0 1024 1024" version="1.1" xmlns="http://www.w3.org/2000/svg" p-id="4814" xmlns:xlink="http://www.w3.org/1999/xlink" width="200" height="200"><defs><style type="text/css"></style></defs><path d="M512 0C229.678545 0 0 229.678545 0 512c0 282.321455 229.678545 512 512 512 282.321455 0 512-229.678545 512-512C1024 229.678545 794.321455 0 512 0zM746.263273 531.549091c-4.002909 4.002909-9.541818 6.493091-15.732364 6.493091l-196.328727 0 0 197.329455c0 6.144-2.443636 11.729455-6.493091 15.778909-4.026182 4.002909-9.588364 6.493091-15.732364 6.493091-12.311273 0-22.272-9.960727-22.248727-22.272l0-197.329455-195.165091 0c-12.311273 0-22.272-9.960727-22.272-22.272 0-12.288 9.937455-22.248727 22.248727-22.248727l195.165091 0 0-204.893091c0-12.288 9.960727-22.248727 22.272-22.248727 12.288 0 22.272 9.960727 22.225455 22.248727l0 204.893091 196.328727 0c12.311273-0.023273 22.272 9.937455 22.272 22.248727C752.826182 521.937455 750.312727 527.522909 746.263273 531.549091z" p-id="4815" fill="#ffffff"></path></svg>