<?xml version="1.0" standalone="no"?><!DOCTYPE svg PUBLIC "-//W3C//DTD SVG 1.1//EN" "http://www.w3.org/Graphics/SVG/1.1/DTD/svg11.dtd"><svg t="1544144381741" class="icon" style="" viewBox="0 0 1027 1024" version="1.1" xmlns="http://www.w3.org/2000/svg" p-id="4681" xmlns:xlink="http://www.w3.org/1999/xlink" width="128.375" height="128"><defs><style type="text/css"></style></defs><path d="M475.498667 1022.848a128.128 128.128 0 0 1-127.957334-127.957333v-126.954667H145.024c-80 0-145.088-65.088-145.088-145.301333V145.088A145.258667 145.258667 0 0 1 145.024 0h477.568c80 0 145.301333 65.088 145.301333 145.088v197.482667h131.776A128.128 128.128 0 0 1 1027.626667 470.528v424.170667a128.128 128.128 0 0 1-127.957334 127.957333H475.498667v0.192z m-57.621334-127.957333a57.6 57.6 0 0 0 57.642667 57.621333h424.170667a57.6 57.6 0 0 0 57.642666-57.621333V470.72a57.621333 57.621333 0 0 0-57.642666-57.642667h-131.989334v209.557334c0 80-65.088 145.301333-145.301333 145.301333h-204.522667v126.954667z m57.621334-481.813334a57.621333 57.621333 0 0 0-57.642667 57.642667v226.688h204.736a74.88 74.88 0 0 0 74.773333-74.773333v-209.557334h-221.866666zM145.024 70.528a74.666667 74.666667 0 0 0-74.56 74.56v477.376a74.88 74.88 0 0 0 74.752 74.773333h202.304V470.72a128.128 128.128 0 0 1 127.957333-127.957333h221.653334V145.28a74.858667 74.858667 0 0 0-74.773334-74.752H145.024z m0 0" fill="" p-id="4682"></path></svg>