<?xml version="1.0" standalone="no"?><!DOCTYPE svg PUBLIC "-//W3C//DTD SVG 1.1//EN" "http://www.w3.org/Graphics/SVG/1.1/DTD/svg11.dtd"><svg t="1544195638849" class="icon" style="" viewBox="0 0 1024 1024" version="1.1" xmlns="http://www.w3.org/2000/svg" p-id="1825" xmlns:xlink="http://www.w3.org/1999/xlink" width="128" height="128"><defs><style type="text/css"></style></defs><path d="M385.28 740.48H85.76c-20.48 0-37.12-16.64-37.12-37.12V446.08c0-20.48 16.64-37.12 37.12-37.12h300.16c4.48 0 7.68 3.2 7.68 7.68s-3.2 7.68-7.68 7.68H85.76c-12.16 0-21.76 9.6-21.76 21.76V704c0 12.16 9.6 21.76 21.76 21.76h300.16c4.48 0 7.68 3.2 7.68 7.68-0.64 3.84-3.84 7.04-8.32 7.04z" fill="#00ABE0" p-id="1826"></path><path d="M284.16 604.8c-1.28 0-3.2-0.64-4.48-1.28l-224-163.2c-3.2-2.56-3.84-7.04-1.92-10.88 2.56-3.2 7.04-3.84 10.88-1.92l219.52 160 96.64-70.4c3.2-2.56 8.32-1.92 10.88 1.92 2.56 3.2 1.92 8.32-1.92 10.88L288.64 603.52c-1.28 0.64-2.56 1.28-4.48 1.28zM87.04 711.04c-2.56 0-4.48-1.28-6.4-3.2-2.56-3.2-1.92-8.32 1.28-10.88l1.28-0.64c3.2-2.56 8.32-1.92 10.88 1.28 2.56 3.2 1.92 8.32-1.28 10.88l-1.28 0.64c-1.28 1.28-2.56 1.92-4.48 1.92zM103.04 698.88c-2.56 0-4.48-1.28-6.4-3.2-2.56-3.2-1.92-8.32 1.28-10.88l2.56-1.92c3.2-2.56 8.32-1.92 10.88 1.28 2.56 3.2 1.92 8.32-1.28 10.88l-2.56 1.92c-1.28 1.28-2.56 1.92-4.48 1.92z m17.28-12.8c-2.56 0-4.48-1.28-6.4-3.2-2.56-3.2-1.92-8.32 1.28-10.88l2.56-1.92c3.2-2.56 8.32-1.92 10.88 1.28 2.56 3.2 1.92 8.32-1.28 10.88l-2.56 1.92c-1.28 1.28-2.56 1.92-4.48 1.92z m17.28-12.8c-2.56 0-4.48-1.28-6.4-3.2-2.56-3.2-1.92-8.32 1.28-10.88l2.56-1.92c3.2-2.56 8.32-1.92 10.88 1.28 2.56 3.2 1.92 8.32-1.28 10.88l-2.56 1.92c-1.28 1.28-2.56 1.92-4.48 1.92z m17.28-12.8c-2.56 0-4.48-1.28-6.4-3.2-2.56-3.2-1.92-8.32 1.28-10.88l2.56-1.92c3.2-2.56 8.32-1.92 10.88 1.28 2.56 3.2 1.92 8.32-1.28 10.88l-2.56 1.92c-1.28 1.28-2.56 1.92-4.48 1.92z m17.28-12.8c-2.56 0-4.48-1.28-6.4-3.2-2.56-3.2-1.92-8.32 1.28-10.88l2.56-1.92c3.2-2.56 8.32-1.92 10.88 1.28 2.56 3.2 1.92 8.32-1.28 10.88l-2.56 1.92c-1.28 1.28-3.2 1.92-4.48 1.92z m17.28-12.8c-2.56 0-4.48-1.28-6.4-3.2-2.56-3.2-1.92-8.32 1.28-10.88l2.56-1.92c3.2-2.56 8.32-1.92 10.88 1.28 2.56 3.2 1.92 8.32-1.28 10.88l-2.56 2.56c-1.28 0.64-3.2 1.28-4.48 1.28z m17.28-12.8c-2.56 0-4.48-1.28-6.4-3.2-2.56-3.2-1.92-8.32 1.28-10.88l2.56-1.92c3.2-2.56 8.32-1.92 10.88 1.28 2.56 3.2 1.92 8.32-1.28 10.88l-2.56 2.56c-1.28 0.64-3.2 1.28-4.48 1.28zM224 609.28c-2.56 0-4.48-1.28-6.4-3.2-2.56-3.2-1.92-8.32 1.28-10.88l1.28-0.64c3.2-2.56 8.32-1.92 10.88 1.28 2.56 3.2 1.92 8.32-1.28 10.88l-1.28 1.28c-1.28 0.64-3.2 1.28-4.48 1.28zM336.64 605.44c-1.28 0-3.2-0.64-4.48-1.28l-1.28-0.64c-3.2-2.56-3.84-7.04-1.28-10.88 2.56-3.2 7.04-3.84 10.88-1.28l1.28 0.64c3.2 2.56 3.84 7.04 1.28 10.88-1.92 1.92-4.48 2.56-6.4 2.56zM369.92 630.4c-1.28 0-3.2-0.64-4.48-1.28l-2.56-1.92c-3.2-2.56-3.84-7.04-1.28-10.88 2.56-3.2 7.04-3.84 10.88-1.28l2.56 1.92c3.2 2.56 3.84 7.04 1.28 10.88-1.92 1.92-4.48 2.56-6.4 2.56z m-16.64-12.16c-1.28 0-3.2-0.64-4.48-1.28l-2.56-1.92c-3.2-2.56-3.84-7.04-1.28-10.88 2.56-3.2 7.04-3.84 10.88-1.28l2.56 1.92c3.2 2.56 3.84 7.04 1.28 10.88-1.92 1.28-4.48 2.56-6.4 2.56zM385.28 641.92c-1.28 0-3.2-0.64-4.48-1.28l-1.28-0.64c-3.2-2.56-3.84-7.04-1.28-10.88 2.56-3.2 7.04-3.84 10.88-1.28l1.28 0.64c3.2 2.56 3.84 7.04 1.28 10.88-1.92 1.92-3.84 2.56-6.4 2.56z" fill="#00ABE0" p-id="1827"></path><path d="M355.84 312.96c-23.04-22.4-53.12-34.56-84.48-33.28-33.28 0.64-65.28 15.36-88.32 39.68-21.76 23.04-33.28 51.84-32.64 81.28v8.32h15.36v-8.96c-0.64-25.6 9.6-50.56 28.16-71.04 20.48-21.76 48.64-34.56 78.08-35.2 27.52-0.64 53.76 9.6 73.6 29.44 20.48 19.84 32.64 48 32.64 76.8v421.76H165.76v-81.28h-15.36v88.96c0 4.48 3.2 7.68 7.68 7.68h227.2c4.48 0 7.68-3.2 7.68-7.68v-428.8c0-33.28-13.44-65.28-37.12-87.68z" fill="#211D1C" p-id="1828"></path><path d="M967.68 837.76l-582.4-0.64c-4.48 0-7.68-3.2-7.68-7.68s3.2-7.68 7.68-7.68l574.72 0.64V400.64c0-58.24-47.36-106.24-106.24-106.24H825.6 272c-4.48 0-7.68-3.2-7.68-7.68s3.2-7.68 7.68-7.68l582.4 0.64c66.56 0 120.96 54.4 120.96 120.96v429.44c0 1.92-0.64 3.84-1.92 5.12-1.28 1.28-3.2 2.56-5.76 2.56z" fill="#211D1C" p-id="1829"></path><path d="M967.68 837.76l-582.4-0.64c-4.48 0-7.68-3.2-7.68-7.68s3.2-7.68 7.68-7.68l574.72 0.64V400.64c0-58.24-47.36-106.24-106.24-106.24H825.6 272c-4.48 0-7.68-3.2-7.68-7.68s3.2-7.68 7.68-7.68l582.4 0.64c66.56 0 120.96 54.4 120.96 120.96v429.44c0 1.92-0.64 3.84-1.92 5.12-1.28 1.28-3.2 2.56-5.76 2.56z" fill="#211D1C" p-id="1830"></path><path d="M526.72 332.16H524.8c-4.48 0-7.68-3.2-7.68-7.68s3.2-7.68 7.68-7.68h1.28c4.48 0 7.68 3.2 7.68 7.68 0.64 4.48-3.2 7.68-7.04 7.68zM929.92 779.52c-4.48 0-7.68-3.2-7.68-7.68v-3.2c0-4.48 3.2-7.68 7.68-7.68s7.68 3.2 7.68 7.68v3.2c0 4.48-3.2 7.68-7.68 7.68z m0-21.76c-4.48 0-7.68-3.2-7.68-7.68v-3.2c0-4.48 3.2-7.68 7.68-7.68s7.68 3.2 7.68 7.68v3.2c0 4.48-3.2 7.68-7.68 7.68z m0-21.12c-4.48 0-7.68-3.2-7.68-7.68v-3.2c0-4.48 3.2-7.68 7.68-7.68s7.68 3.2 7.68 7.68v3.2c0 4.48-3.2 7.68-7.68 7.68z m0-21.76c-4.48 0-7.68-3.2-7.68-7.68v-3.2c0-4.48 3.2-7.68 7.68-7.68s7.68 3.2 7.68 7.68v3.2c0 4.48-3.2 7.68-7.68 7.68z m0-21.12c-4.48 0-7.68-3.2-7.68-7.68v-3.2c0-4.48 3.2-7.68 7.68-7.68s7.68 3.2 7.68 7.68v3.2c0 3.84-3.2 7.68-7.68 7.68z m0-21.76c-4.48 0-7.68-3.2-7.68-7.68v-3.2c0-4.48 3.2-7.68 7.68-7.68s7.68 3.2 7.68 7.68v3.2c0 4.48-3.2 7.68-7.68 7.68z m0-21.76c-4.48 0-7.68-3.2-7.68-7.68v-2.56c0-4.48 3.2-7.68 7.68-7.68s7.68 3.2 7.68 7.68v3.2c0 3.84-3.2 7.04-7.68 7.04z m0-21.12c-4.48 0-7.68-3.2-7.68-7.68v-3.2c0-4.48 3.2-7.68 7.68-7.68s7.68 3.2 7.68 7.68v3.2c0 3.84-3.2 7.68-7.68 7.68z m0-21.76c-4.48 0-7.68-3.2-7.68-7.68v-3.2c0-4.48 3.2-7.68 7.68-7.68s7.68 3.2 7.68 7.68v3.2c0 4.48-3.2 7.68-7.68 7.68z m0-21.76c-4.48 0-7.68-3.2-7.68-7.68v-3.2c0-4.48 3.2-7.68 7.68-7.68s7.68 3.2 7.68 7.68v3.2c0 4.48-3.2 7.68-7.68 7.68z m0-21.12c-4.48 0-7.68-3.2-7.68-7.68v-3.2c0-4.48 3.2-7.68 7.68-7.68s7.68 3.2 7.68 7.68v3.2c0 3.84-3.2 7.68-7.68 7.68z m0-21.76c-4.48 0-7.68-3.2-7.68-7.68v-3.2c0-4.48 3.2-7.68 7.68-7.68s7.68 3.2 7.68 7.68v3.2c0 4.48-3.2 7.68-7.68 7.68z m0-21.12c-4.48 0-7.68-3.2-7.68-7.68v-3.2c0-4.48 3.2-7.68 7.68-7.68s7.68 3.2 7.68 7.68v3.2c0 3.84-3.2 7.68-7.68 7.68z m0-21.76c-4.48 0-7.68-3.2-7.68-7.68v-3.2c0-4.48 3.2-7.68 7.68-7.68s7.68 3.2 7.68 7.68v3.2c0 4.48-3.2 7.68-7.68 7.68z m0-21.76c-4.48 0-7.68-3.2-7.68-7.68V467.2c0-4.48 3.2-7.68 7.68-7.68s7.68 3.2 7.68 7.68v3.2c0 4.48-3.2 7.68-7.68 7.68z m0-21.12c-4.48 0-7.68-3.2-7.68-7.68v-3.2c0-4.48 3.2-7.68 7.68-7.68s7.68 3.2 7.68 7.68v3.2c0 3.84-3.2 7.68-7.68 7.68z m0-21.76c-4.48 0-7.68-3.2-7.68-7.68v-3.2c0-4.48 3.2-7.68 7.68-7.68s7.68 3.2 7.68 7.68v3.2c0 4.48-3.2 7.68-7.68 7.68z m0-21.76c-4.48 0-7.68-3.2-7.68-7.68V403.2c0-4.48 3.2-7.68 7.68-7.68s7.68 3.2 7.68 7.68v3.2c0 3.84-3.2 7.04-7.68 7.04z m-1.28-21.12c-3.2 0-6.4-2.56-7.68-5.76 0-0.64-0.64-1.92-0.64-2.56-1.28-3.84 1.28-8.32 5.12-8.96 3.84-1.28 8.32 1.28 8.96 5.12 0 1.28 0.64 1.92 0.64 3.2 0.64 3.84-1.92 8.32-5.76 8.96h-0.64z m-7.68-19.84c-2.56 0-5.12-1.28-6.4-3.84-0.64-0.64-0.64-1.28-1.28-2.56-1.92-3.84-1.28-8.32 2.56-10.24 3.84-1.92 8.32-1.28 10.24 2.56 0.64 0.64 1.28 1.92 1.92 2.56 1.92 3.84 0.64 8.32-3.2 10.24-1.28 0.64-2.56 1.28-3.84 1.28z m-12.8-17.28c-1.92 0-3.84-0.64-5.12-1.92l-1.92-1.92c-3.2-2.56-3.2-7.68-0.64-10.88s7.68-3.2 10.88-0.64l2.56 2.56c3.2 3.2 3.2 7.68 0 10.88-1.92 1.28-3.84 1.92-5.76 1.92z m-17.28-13.44c-1.28 0-2.56 0-3.84-1.28-0.64-0.64-1.28-0.64-2.56-1.28-3.84-1.92-5.12-6.4-3.2-10.24 1.92-3.84 6.4-5.12 10.24-3.2 1.28 0.64 1.92 1.28 3.2 1.28 3.84 1.92 5.12 6.4 3.2 10.24-1.92 3.2-4.48 4.48-7.04 4.48z m-19.84-7.04h-1.92c-0.64 0-1.92-0.64-2.56-0.64-3.84-0.64-7.04-4.48-6.4-8.96 0.64-3.84 4.48-7.04 8.96-6.4 1.28 0 1.92 0.64 3.2 0.64 3.84 0.64 6.4 5.12 5.76 8.96-0.64 3.84-3.84 6.4-7.04 6.4z m-21.76-1.92h-3.2c-4.48 0-7.68-3.2-7.68-7.68s3.2-7.68 7.68-7.68h3.2c4.48 0 7.68 3.2 7.68 7.68 0 3.84-3.2 7.68-7.68 7.68z m-21.12 0h-3.2c-4.48 0-7.68-3.2-7.68-7.68s3.2-7.68 7.68-7.68h3.2c4.48 0 7.68 3.2 7.68 7.68s-3.84 7.68-7.68 7.68z m-21.76 0h-3.2c-4.48 0-7.68-3.2-7.68-7.68s3.2-7.68 7.68-7.68h3.2c4.48 0 7.68 3.2 7.68 7.68 0 3.84-3.2 7.68-7.68 7.68z m-21.76 0h-3.2c-4.48 0-7.68-3.2-7.68-7.68s3.2-7.68 7.68-7.68h3.2c4.48 0 7.68 3.2 7.68 7.68 0 3.84-3.2 7.68-7.68 7.68z m-21.12 0h-3.2c-4.48 0-7.68-3.2-7.68-7.68s3.2-7.68 7.68-7.68h3.2c4.48 0 7.68 3.2 7.68 7.68s-3.84 7.68-7.68 7.68z m-21.76 0h-3.2c-4.48 0-7.68-3.2-7.68-7.68s3.2-7.68 7.68-7.68h3.2c4.48 0 7.68 3.2 7.68 7.68 0 3.84-3.2 7.68-7.68 7.68z m-21.12 0h-3.2c-4.48 0-7.68-3.2-7.68-7.68s3.2-7.68 7.68-7.68h3.2c4.48 0 7.68 3.2 7.68 7.68-0.64 3.84-3.84 7.68-7.68 7.68z m-21.76 0h-3.2c-4.48 0-7.68-3.2-7.68-7.68s3.2-7.68 7.68-7.68h3.2c4.48 0 7.68 3.2 7.68 7.68s-3.84 7.68-7.68 7.68z m-21.76 0h-3.2c-4.48 0-7.68-3.2-7.68-7.68s3.2-7.68 7.68-7.68h3.2c4.48 0 7.68 3.2 7.68 7.68 0 3.84-3.2 7.68-7.68 7.68z m-21.12-0.64h-3.2c-4.48 0-7.68-3.2-7.68-7.68s3.2-7.68 7.68-7.68h3.2c4.48 0 7.68 3.2 7.68 7.68s-3.84 7.68-7.68 7.68z m-21.76 0h-3.2c-4.48 0-7.68-3.2-7.68-7.68s3.2-7.68 7.68-7.68h3.2c4.48 0 7.68 3.2 7.68 7.68s-3.2 7.68-7.68 7.68z m-21.76 0h-3.2c-4.48 0-7.68-3.2-7.68-7.68s3.2-7.68 7.68-7.68h3.2c4.48 0 7.68 3.2 7.68 7.68s-3.2 7.68-7.68 7.68z m-21.12 0h-3.2c-4.48 0-7.68-3.2-7.68-7.68s3.2-7.68 7.68-7.68h3.2c4.48 0 7.68 3.2 7.68 7.68s-3.84 7.68-7.68 7.68z m-21.76 0h-3.2c-4.48 0-7.68-3.2-7.68-7.68s3.2-7.68 7.68-7.68h3.2c4.48 0 7.68 3.2 7.68 7.68s-3.2 7.68-7.68 7.68z m-21.76 0h-3.2c-4.48 0-7.68-3.2-7.68-7.68s3.2-7.68 7.68-7.68h3.2c4.48 0 7.68 3.2 7.68 7.68s-3.2 7.68-7.68 7.68zM929.92 800c-4.48 0-7.68-3.2-7.68-7.68v-1.28c0-4.48 3.2-7.68 7.68-7.68s7.68 3.2 7.68 7.68v1.28c0 3.84-3.2 7.68-7.68 7.68z" fill="#211D1C" p-id="1831"></path><path d="M476.8 458.88c-24.96 0-45.44-20.48-45.44-45.44 0-24.96 20.48-45.44 45.44-45.44 24.96 0 45.44 20.48 45.44 45.44 0 24.96-20.48 45.44-45.44 45.44z m0-76.16c-16.64 0-30.08 13.44-30.08 30.08s13.44 30.08 30.08 30.08 30.08-13.44 30.08-30.08-13.44-30.08-30.08-30.08z" fill="#00ABE0" p-id="1832"></path><path d="M476.8 382.72c-4.48 0-7.68-3.2-7.68-7.68V72.32c0-4.48 3.2-7.68 7.68-7.68h226.56c3.2 0 5.76 1.92 7.04 4.48 1.28 2.56 0.64 6.4-1.92 8.32l-70.4 70.4 70.4 70.4c1.92 1.92 2.56 5.12 1.92 8.32-1.28 2.56-3.84 4.48-7.04 4.48H483.84v144c0 4.48-3.2 7.68-7.04 7.68z m7.04-166.4H684.8L622.08 153.6c-1.28-1.28-1.92-3.2-1.92-5.12s0.64-3.84 1.92-5.12l62.72-62.72H483.84v135.68z" fill="#00ABE0" p-id="1833"></path><path d="M424.32 800h-1.28c-4.48 0-7.68-3.2-7.68-7.68s3.2-7.68 7.68-7.68h1.28c4.48 0 7.68 3.2 7.68 7.68 0 3.84-3.2 7.68-7.68 7.68zM910.08 800h-3.2c-4.48 0-7.68-3.2-7.68-7.68s3.2-7.68 7.68-7.68h3.2c4.48 0 7.68 3.2 7.68 7.68 0 3.84-3.84 7.68-7.68 7.68z m-22.4 0h-3.2c-4.48 0-7.68-3.2-7.68-7.68s3.2-7.68 7.68-7.68h3.2c4.48 0 7.68 3.2 7.68 7.68 0 3.84-3.2 7.68-7.68 7.68z m-21.76 0h-3.2c-4.48 0-7.68-3.2-7.68-7.68s3.2-7.68 7.68-7.68h3.2c4.48 0 7.68 3.2 7.68 7.68 0 3.84-3.84 7.68-7.68 7.68z m-22.4 0h-3.2c-4.48 0-7.68-3.2-7.68-7.68s3.2-7.68 7.68-7.68h3.2c4.48 0 7.68 3.2 7.68 7.68 0 3.84-3.2 7.68-7.68 7.68z m-21.76 0h-3.2c-4.48 0-7.68-3.2-7.68-7.68s3.2-7.68 7.68-7.68h3.2c4.48 0 7.68 3.2 7.68 7.68 0 3.84-3.84 7.68-7.68 7.68z m-22.4 0h-3.2c-4.48 0-7.68-3.2-7.68-7.68s3.2-7.68 7.68-7.68h3.2c4.48 0 7.68 3.2 7.68 7.68 0 3.84-3.2 7.68-7.68 7.68z m-21.76 0h-3.2c-4.48 0-7.68-3.2-7.68-7.68s3.2-7.68 7.68-7.68h3.2c4.48 0 7.68 3.2 7.68 7.68 0 3.84-3.2 7.68-7.68 7.68z m-22.4 0h-3.2c-4.48 0-7.68-3.2-7.68-7.68s3.2-7.68 7.68-7.68h3.2c4.48 0 7.68 3.2 7.68 7.68 0 3.84-3.2 7.68-7.68 7.68z m-21.76 0h-3.2c-4.48 0-7.68-3.2-7.68-7.68s3.2-7.68 7.68-7.68h3.2c4.48 0 7.68 3.2 7.68 7.68 0 3.84-3.2 7.68-7.68 7.68z m-22.4 0h-3.2c-4.48 0-7.68-3.2-7.68-7.68s3.2-7.68 7.68-7.68h3.2c4.48 0 7.68 3.2 7.68 7.68 0 3.84-3.2 7.68-7.68 7.68z m-21.76 0h-3.2c-4.48 0-7.68-3.2-7.68-7.68s3.2-7.68 7.68-7.68h3.2c4.48 0 7.68 3.2 7.68 7.68 0 3.84-3.2 7.68-7.68 7.68z m-21.76 0h-3.2c-4.48 0-7.68-3.2-7.68-7.68s3.2-7.68 7.68-7.68h3.2c4.48 0 7.68 3.2 7.68 7.68-0.64 3.84-3.84 7.68-7.68 7.68z m-22.4 0h-3.2c-4.48 0-7.68-3.2-7.68-7.68s3.2-7.68 7.68-7.68h3.2c4.48 0 7.68 3.2 7.68 7.68 0 3.84-3.2 7.68-7.68 7.68z m-21.76 0h-3.2c-4.48 0-7.68-3.2-7.68-7.68s3.2-7.68 7.68-7.68h3.2c4.48 0 7.68 3.2 7.68 7.68-0.64 3.84-3.84 7.68-7.68 7.68z m-22.4 0h-3.2c-4.48 0-7.68-3.2-7.68-7.68s3.2-7.68 7.68-7.68h3.2c4.48 0 7.68 3.2 7.68 7.68 0 3.84-3.2 7.68-7.68 7.68z m-21.76 0H576c-4.48 0-7.68-3.2-7.68-7.68s3.2-7.68 7.68-7.68h3.2c4.48 0 7.68 3.2 7.68 7.68-0.64 3.84-3.84 7.68-7.68 7.68z m-22.4 0h-3.2c-4.48 0-7.68-3.2-7.68-7.68s3.2-7.68 7.68-7.68h3.2c4.48 0 7.68 3.2 7.68 7.68 0 3.84-3.2 7.68-7.68 7.68z m-21.76 0h-3.2c-4.48 0-7.68-3.2-7.68-7.68s3.2-7.68 7.68-7.68h3.2c4.48 0 7.68 3.2 7.68 7.68-0.64 3.84-3.84 7.68-7.68 7.68z m-22.4 0h-3.2c-4.48 0-7.68-3.2-7.68-7.68s3.2-7.68 7.68-7.68h3.2c4.48 0 7.68 3.2 7.68 7.68 0 3.84-3.2 7.68-7.68 7.68z m-21.76 0h-3.2c-4.48 0-7.68-3.2-7.68-7.68s3.2-7.68 7.68-7.68h3.2c4.48 0 7.68 3.2 7.68 7.68-0.64 3.84-3.84 7.68-7.68 7.68z m-22.4 0h-3.2c-4.48 0-7.68-3.2-7.68-7.68s3.2-7.68 7.68-7.68h3.2c4.48 0 7.68 3.2 7.68 7.68 0 3.84-3.2 7.68-7.68 7.68z m-21.76 0h-3.2c-4.48 0-7.68-3.2-7.68-7.68s3.2-7.68 7.68-7.68h3.2c4.48 0 7.68 3.2 7.68 7.68-0.64 3.84-3.84 7.68-7.68 7.68zM930.56 800h-1.28c-4.48 0-7.68-3.2-7.68-7.68s3.2-7.68 7.68-7.68h1.28c4.48 0 7.68 3.2 7.68 7.68 0 3.84-3.2 7.68-7.68 7.68z" fill="#211D1C" p-id="1834"></path><path d="M385.28 800H158.08c-4.48 0-7.68-3.2-7.68-7.68s3.2-7.68 7.68-7.68h227.2c4.48 0 7.68 3.2 7.68 7.68 0 3.84-3.2 7.68-7.68 7.68zM740.48 875.52H437.76c-4.48 0-7.68-3.2-7.68-7.68v-38.4c0-4.48 3.2-7.68 7.68-7.68h302.72c4.48 0 7.68 3.2 7.68 7.68v38.4c0 4.48-3.2 7.68-7.68 7.68z m-295.04-14.72h288v-23.68h-288v23.68z" fill="#211D1C" p-id="1835"></path><path d="M627.2 951.68H551.04c-3.2 0-5.76-1.92-7.04-4.48l-37.12-75.52c-1.28-2.56-1.28-5.12 0.64-7.04 1.28-1.92 3.84-3.84 6.4-3.84h151.04c2.56 0 5.12 1.28 6.4 3.84 1.28 1.92 1.28 5.12 0.64 7.04L634.24 947.2c-1.28 2.56-3.84 4.48-7.04 4.48z m-71.68-15.36h67.2l30.08-60.8H525.44l30.08 60.8z" fill="#211D1C" p-id="1836"></path><path d="M627.2 988.8H551.04c-4.48 0-7.68-3.2-7.68-7.68v-37.12c0-4.48 3.2-7.68 7.68-7.68H627.2c4.48 0 7.68 3.2 7.68 7.68v37.12c0 4.48-3.2 7.68-7.68 7.68z m-68.48-14.72h61.44v-22.4h-61.44v22.4z" fill="#211D1C" p-id="1837"></path></svg>