<?xml version="1.0" standalone="no"?><!DOCTYPE svg PUBLIC "-//W3C//DTD SVG 1.1//EN" "http://www.w3.org/Graphics/SVG/1.1/DTD/svg11.dtd"><svg t="1544144497128" class="icon" style="" viewBox="0 0 1381 1024" version="1.1" xmlns="http://www.w3.org/2000/svg" p-id="6927" xmlns:xlink="http://www.w3.org/1999/xlink" width="172.625" height="128"><defs><style type="text/css"></style></defs><path d="M788.034783 400.695652l396.243478 0 0 66.782609-396.243478 0L788.034783 400.695652 788.034783 400.695652 788.034783 400.695652zM788.034783 400.695652" p-id="6928"></path><path d="M908.243478 903.791304 908.243478 903.791304 124.66087 903.791304c-31.165217 0-53.426087-22.26087-53.426087-53.426087L71.234783 124.66087c0-31.165217 22.26087-57.878261 53.426087-57.878261l1135.304348 0c31.165217 0 53.426087 22.26087 53.426087 53.426087l0 431.86087 4.452174 4.452174c17.808696 8.904348 35.617391 22.26087 48.973913 40.069565l13.356522 17.808696L1380.173913 106.852174C1380.173913 48.973913 1331.2 0 1273.321739 0L106.852174 0C48.973913 0 0 48.973913 0 106.852174l0 756.869565c0 57.878261 48.973913 106.852174 106.852174 106.852174l845.913043 0-8.904348-13.356522C930.504348 939.408696 921.6 921.6 908.243478 903.791304L908.243478 903.791304 908.243478 903.791304zM908.243478 903.791304" p-id="6929"></path><path d="M788.034783 552.069565l115.756522 0 0 66.782609-115.756522 0L788.034783 552.069565 788.034783 552.069565 788.034783 552.069565zM788.034783 552.069565" p-id="6930"></path><path d="M788.034783 249.321739l396.243478 0 0 66.782609-396.243478 0L788.034783 249.321739 788.034783 249.321739 788.034783 249.321739zM788.034783 249.321739" p-id="6931"></path><path d="M1153.113043 560.973913c-129.113043 0-227.06087 97.947826-227.06087 227.06087 0 124.66087 102.4 227.06087 227.06087 227.06087 129.113043 0 227.06087-97.947826 227.06087-227.06087C1380.173913 658.921739 1277.773913 560.973913 1153.113043 560.973913L1153.113043 560.973913 1153.113043 560.973913zM1148.66087 926.052174c-8.904348 8.904348-31.165217 8.904348-44.521739 0l-97.947826-97.947826c-8.904348-8.904348-8.904348-31.165217 0-40.069565 8.904348-8.904348 31.165217-8.904348 44.521739 0l75.686957 75.686957 146.921739-142.469565c8.904348-8.904348 31.165217-8.904348 44.521739 0 8.904348 8.904348 8.904348 31.165217 0 40.069565L1148.66087 926.052174 1148.66087 926.052174 1148.66087 926.052174zM1148.66087 926.052174" p-id="6932"></path><path d="M556.521739 480.834783c35.617391-35.617391 62.330435-84.591304 62.330435-138.017391 0-102.4-80.13913-182.53913-182.53913-182.53913-102.4 0-182.53913 80.13913-182.53913 182.53913 0 53.426087 22.26087 102.4 62.330435 138.017391-102.4 44.521739-169.182609 146.921739-169.182609 267.130435l71.234783 0c0-120.208696 97.947826-218.156522 218.156522-218.156522 120.208696 0 218.156522 97.947826 218.156522 218.156522l71.234783 0C730.156522 627.756522 658.921739 525.356522 556.521739 480.834783L556.521739 480.834783zM436.313043 231.513043c62.330435 0 111.304348 48.973913 111.304348 111.304348 0 62.330435-48.973913 111.304348-111.304348 111.304348-62.330435 0-111.304348-48.973913-111.304348-111.304348C325.008696 280.486957 373.982609 231.513043 436.313043 231.513043L436.313043 231.513043zM436.313043 231.513043" p-id="6933"></path></svg>