<?xml version="1.0" standalone="no"?><!DOCTYPE svg PUBLIC "-//W3C//DTD SVG 1.1//EN" "http://www.w3.org/Graphics/SVG/1.1/DTD/svg11.dtd"><svg t="1544168690791" class="icon" style="" viewBox="0 0 1024 1024" version="1.1" xmlns="http://www.w3.org/2000/svg" p-id="2369" xmlns:xlink="http://www.w3.org/1999/xlink" width="128" height="128"><defs><style type="text/css"></style></defs><path d="M976.384 707.584c-20.48 0-36.864 16.384-36.864 36.864v167.936c0 20.48-16.384 36.864-36.864 36.864H120.32c-20.48 0-36.864-16.384-36.864-36.864V744.448c0-20.48-16.384-36.864-36.864-36.864S9.728 723.968 9.728 744.448v204.8c0 40.96 33.792 74.752 74.752 74.752H940.544c40.96 0 74.752-33.792 74.752-74.752v-204.8c-1.024-20.48-17.408-36.864-38.912-36.864z" p-id="2370"></path><path d="M476.672 781.312c14.336 14.336 37.888 14.336 52.224 0L818.688 491.52c14.336-14.336 14.336-37.888 0-52.224-14.336-14.336-37.888-14.336-52.224 0L539.136 666.624V36.864c0-20.48-16.384-36.864-36.864-36.864s-36.864 16.384-36.864 36.864v626.688l-225.28-225.28c-14.336-14.336-37.888-14.336-52.224 0-14.336 14.336-14.336 37.888 0 52.224l288.768 290.816z" p-id="2371"></path></svg>