<?xml version="1.0" standalone="no"?><!DOCTYPE svg PUBLIC "-//W3C//DTD SVG 1.1//EN" "http://www.w3.org/Graphics/SVG/1.1/DTD/svg11.dtd"><svg t="1543417504864" class="icon" style="" viewBox="0 0 1024 1024" version="1.1" xmlns="http://www.w3.org/2000/svg" p-id="9467" xmlns:xlink="http://www.w3.org/1999/xlink" width="128" height="128"><defs><style type="text/css"></style></defs><path d="M512 510.4m-105.9 0a105.9 105.9 0 1 0 211.8 0 105.9 105.9 0 1 0-211.8 0Z" p-id="9468"></path><path d="M876 553.6l-8.2-4.8c-20-11.6-22.2-30.7-22.2-38.4 0-7.7 2.2-26.9 22.2-38.4l8.2-4.7c25.3-14.6 43.4-38.1 50.9-66.3 7.6-28.2 3.7-57.6-10.9-82.9l-35.3-61.2c-14.6-25.3-38.1-43.4-66.3-50.9-28.2-7.5-57.6-3.7-82.9 10.9l-8.2 4.7c-20 11.6-37.7 3.9-44.4 0s-22.2-15.3-22.2-38.4v-9.5c0-60.2-49-109.3-109.3-109.3h-70.6c-60.2 0-109.3 49-109.3 109.3v9.5c0 19.6-11.3 30.8-18 35.7-11.6 8.4-30.5 13.6-48.8 2.9l-8.8-5.2c-2.6-1.5-4.8-2.8-7.6-4.1-0.1 0-0.2-0.1-0.2-0.1-51.6-24-112.1-4.9-140.6 44.5L108 318c-14.6 25.3-18.5 54.7-10.9 82.9 7.6 28.2 25.6 51.7 50.9 66.3l8.2 4.8c20 11.6 22.2 30.7 22.2 38.4 0 7.7-2.2 26.9-22.2 38.4l-8.2 4.7c-25.3 14.6-43.4 38.1-50.9 66.3-7.6 28.2-3.7 57.6 10.9 82.9l35.3 61.2c14.6 25.3 38.1 43.4 66.3 50.9 28.2 7.5 57.6 3.7 82.9-10.9l8.2-4.7c20-11.6 37.7-3.9 44.4 0 6.7 3.9 22.2 15.3 22.2 38.4v9.5c0 60.2 49 109.3 109.3 109.3h70.6c60.2 0 109.3-49 109.3-109.3v-9.5c0-23.1 15.5-34.6 22.2-38.4 6.7-3.9 24.3-11.6 44.4 0l8.2 4.8c25.3 14.6 54.7 18.5 82.9 10.9 28.2-7.6 51.7-25.6 66.3-50.9l35.3-61.2c14.6-25.3 18.5-54.7 10.9-82.9-7.4-28.1-25.5-51.7-50.7-66.3zM512 687.8c-97.8 0-177.3-79.5-177.3-177.3S414.2 333.1 512 333.1s177.3 79.5 177.3 177.3S609.8 687.8 512 687.8z" p-id="9469"></path></svg>