<?xml version="1.0" standalone="no"?><!DOCTYPE svg PUBLIC "-//W3C//DTD SVG 1.1//EN" "http://www.w3.org/Graphics/SVG/1.1/DTD/svg11.dtd"><svg t="1545093304434" class="icon" style="" viewBox="0 0 1024 1024" version="1.1" xmlns="http://www.w3.org/2000/svg" p-id="1615" xmlns:xlink="http://www.w3.org/1999/xlink" width="128" height="128"><defs><style type="text/css"></style></defs><path d="M576 0h384c35.34336 0 64 28.65664 64 64v896s-28.65664 64-64 64h-384v-64h384v-896h-384.15872M320 448h128v128h-128v128L128 512l192-192v128z m257.92-384H64v896h514.13504l-0.85504 64H64C28.65664 1024 0 995.34336 0 960v-896S28.65664 0 64 0h516.16256M896 512l-192 192v-128h-128v-128h128v-128L896 512z" fill="" p-id="1616"></path></svg>