<?xml version="1.0" standalone="no"?><!DOCTYPE svg PUBLIC "-//W3C//DTD SVG 1.1//EN" "http://www.w3.org/Graphics/SVG/1.1/DTD/svg11.dtd"><svg t="1544143701490" class="icon" style="" viewBox="0 0 1024 1024" version="1.1" xmlns="http://www.w3.org/2000/svg" p-id="3215" xmlns:xlink="http://www.w3.org/1999/xlink" width="128" height="128"><defs><style type="text/css"></style></defs><path d="M741.380736 281.003975c-50.89925-50.89925-133.236514-50.765197-183.921893-0.079818-50.817386 50.818409-50.872644 133.074831 0.027629 183.975105 50.791803 50.792826 133.074831 50.765197 183.894264-0.054235C792.065092 414.159648 792.173562 331.795778 741.380736 281.003975zM582.104149 440.22735c-37.207413-37.208437-37.021172-97.423867 0.107447-134.551462 37.046754-37.046754 97.235578-37.208437 134.444015 0 37.074384 37.074384 36.992519 97.343025-0.053212 134.390803C679.447175 477.220892 619.17751 477.301733 582.104149 440.22735zM362.772792 754.593154c-29.261441 3.543709-49.235354-1.987261-64.321958-10.95347-4.189416-2.575662-7.974625-5.342682-11.517311-8.242731-2.873444-3.515057-5.745864-7.300266-8.242731-11.517311-8.966209-15.086603-14.523785-35.087123-10.980076-64.348564 0 0-125.128859-7.65126-134.820592 116.994598l54.041824 1.74576-15.624862 71.624271-1.584078 1.584078 0 0.107447 1.288343-0.270153-0.322341 1.235131 0.107447 0 1.583055-1.584078 71.678506-15.570627 1.691525 53.986565C370.450658 879.69643 362.772792 754.593154 362.772792 754.593154zM269.643742 857.438497l3.114944-53.691853-65.450664 11.276834 11.275811-65.450664-53.718459 3.088338c24.938995-71.706135 76.402087-62.551638 76.402087-62.551638-2.576685 26.792203 1.853208 31.007201 15.651468 51.302433 1.127683 2.201132 6.173606 7.408737 10.522658 12.403494l-0.079818 0.080841c0.160659 0.160659 0.401136 0.348947 0.618077 0.508583 0.13303 0.190335 0.294712 0.404206 0.483001 0.591471l0.079818-0.080841c5.02034 4.376681 10.228969 9.369392 12.403494 10.523681 20.269649 13.771655 24.483624 18.201547 51.329039 15.678074C332.248591 781.091668 341.375459 832.474942 269.643742 857.438497zM684.548356 645.599787c286.09697-114.01473 195.196681-444.86395 181.479261-489.293859-44.430932-13.719466-375.22694-104.565521-489.294882 181.478238 0 0-226.498594-30.416753-245.021459 270.579555l187.169867-25.342178 0.053212 78.444607c0 0 0.069585 16.546861 11.600199 28.077475 13.710256 13.710256 30.359448 13.882172 30.359448 13.882172l78.444607 0.052189L413.995407 890.647853C714.964086 872.152617 684.548356 645.599787 684.548356 645.599787zM453.86137 849.225441l26.067702-182.52508L378.718973 666.700361c0 0-14.525831 0.573051-20.216437-6.15007-2.710738-3.202948-2.87242-16.937764-2.87242-16.937764l0.001023-101.2101-182.498474 26.094308c14.549368-221.585701 227.0082-193.290261 227.0082-193.290261C520.974907 96.466052 781.031804 183.257767 826.805314 195.527209c12.268418 45.771463 99.087762 305.85599-179.680289 426.662403C647.097396 622.216217 675.446048 834.67505 453.86137 849.225441z" p-id="3216"></path></svg>